<svg xmlns="http://www.w3.org/2000/svg" viewBox="0 0 64 64" fill="none">
  <defs>
    <!-- Premium Forest Emerald & Warm Amber/Gold Brand Gradient -->
    <linearGradient id="brand-grad" x1="0%" y1="100%" x2="100%" y2="0%">
      <stop offset="0%" stop-color="#059669" />
      <stop offset="100%" stop-color="#d97706" />
    </linearGradient>
  </defs>

  <!-- Squircle Logo Container -->
  <rect x="4" y="4" width="56" height="56" rx="16" fill="url(#brand-grad)" />

  <!-- Centered White Gift Icon -->
  <g transform="translate(14, 14) scale(1.5)" stroke="#ffffff" stroke-width="2" stroke-linecap="round" stroke-linejoin="round" fill="none">
    <polyline points="20 12 20 22 4 22 4 12" />
    <rect x="2" y="7" width="20" height="5" />
    <line x1="12" y1="22" x2="12" y2="7" />
    <path d="M12 7H7.5a2.5 2.5 0 0 1 0-5C11 2 12 7 12 7z" />
    <path d="M12 7h4.5a2.5 2.5 0 0 0 0-5C13 2 12 7 12 7z" />
  </g>
</svg>